<?xml version="1.0" standalone="no"?>
<!DOCTYPE svg PUBLIC "-//W3C//DTD SVG 1.1//EN" "http://www.w3.org/Graphics/SVG/1.1/DTD/svg11.dtd" >
<svg xmlns="http://www.w3.org/2000/svg">
<metadata>
Created by FontForge 20120731 at Wed Oct 12 14:21:35 2016
 By admin
</metadata>
<defs>
<font id="iconfont" horiz-adv-x="1024" >
  <font-face 
    font-family="iconfont"
    font-weight="500"
    font-stretch="normal"
    units-per-em="1024"
    panose-1="2 0 6 3 0 0 0 0 0 0"
    ascent="896"
    descent="-128"
    x-height="792"
    bbox="0 -129 1026 896"
    underline-thickness="50"
    underline-position="-100"
    unicode-range="U+0078-E62B"
  />
<missing-glyph horiz-adv-x="374" 
d="M34 0v682h272v-682h-272zM68 34h204v614h-204v-614z" />
    <glyph glyph-name=".notdef" horiz-adv-x="374" 
d="M34 0v682h272v-682h-272zM68 34h204v614h-204v-614z" />
    <glyph glyph-name=".null" horiz-adv-x="0" 
 />
    <glyph glyph-name="nonmarkingreturn" horiz-adv-x="341" 
 />
    <glyph glyph-name="x" unicode="x" horiz-adv-x="1001" 
d="M281 543q-27 -1 -53 -1h-83q-18 0 -36.5 -6t-32.5 -18.5t-23 -32t-9 -45.5v-76h912v41q0 16 -0.5 30t-0.5 18q0 13 -5 29t-17 29.5t-31.5 22.5t-49.5 9h-133v-97h-438v97zM955 310v-52q0 -23 0.5 -52t0.5 -58t-10.5 -47.5t-26 -30t-33 -16t-31.5 -4.5q-14 -1 -29.5 -0.5
t-29.5 0.5h-32l-45 128h-439l-44 -128h-29h-34q-20 0 -45 1q-25 0 -41 9.5t-25.5 23t-13.5 29.5t-4 30v167h911zM163 247q-12 0 -21 -8.5t-9 -21.5t9 -21.5t21 -8.5q13 0 22 8.5t9 21.5t-9 21.5t-22 8.5zM316 123q-8 -26 -14 -48q-5 -19 -10.5 -37t-7.5 -25t-3 -15t1 -14.5
t9.5 -10.5t21.5 -4h37h67h81h80h64h36q23 0 34 12t2 38q-5 13 -9.5 30.5t-9.5 34.5q-5 19 -11 39h-368zM336 498v228q0 11 2.5 23t10 21.5t20.5 15.5t34 6h188q31 0 51.5 -14.5t20.5 -52.5v-227h-327z" />
    <glyph glyph-name="uniE600" unicode="&#xe600;" 
d="M768 174l182 -183q9 -9 9 -22.5t-9 -22.5t-22.5 -9t-22.5 9l-183 182zM575.5 121.5q-3.5 15.5 -18 18.5t-22.5 1q-43 -13 -87 -13q-87 0 -160.5 43t-116.5 116.5t-43 160.5t43 160.5t116.5 116.5t160.5 43t160.5 -43t116.5 -116.5t43 -160.5q0 -107 -64 -192
q-18 -23 -16 -58q1 -19 9.5 -36t16.5 -25l8 -9l46 46q-15 15 -15 27.5t15 34.5q64 96 64 212q0 105 -51.5 193t-140 139.5t-193 51.5t-192.5 -51.5t-139.5 -139.5t-51.5 -192.5t51.5 -193t139.5 -139.5t193 -51q57 0 111 16q6 2 13 13.5t3.5 27zM363 659q-7 11 -22 13.5
t-21 -2.5q-58 -34 -93 -93t-35 -129q0 -16 1 -21q2 -13 18 -17t28 4q8 5 12 13.5t5 14.5v6q0 54 27.5 99t72.5 70q8 4 10.5 16t-3.5 26z" />
    <glyph glyph-name="uniE601" unicode="&#xe601;" 
d="M512 832q-86 0 -160 -43t-117 -117t-43 -160q0 -6 0.5 -15.5t9 -33t23.5 -40.5q32 -35 94 -35v63q-35 -2 -51 20q-7 10 -10 20.5t-2 15.5v5q0 106 75 181t181 75q89 0 157.5 -54t90.5 -138q2 -8 15.5 -12t25.5 0q11 4 16 15t2 21q-29 101 -114 166.5t-193 65.5zM832 451
h-512h-1v-63h1h512q26 0 44.5 -19t18.5 -45v-256q0 -27 -18.5 -45.5t-44.5 -18.5h-640q-26 0 -44.5 18.5t-18.5 45.5v192q0 19 9 34q5 7 2 20t-13 20q-9 8 -23.5 5.5t-22.5 -15.5q-4 -8 -8 -17q-9 -22 -9 -47v-192q0 -53 37.5 -90.5t90.5 -37.5h640q53 0 90.5 37.5
t37.5 90.5v256q0 53 -37.5 90t-90.5 37zM608 256h-192q-13 0 -22.5 9.5t-9.5 22.5t9.5 22.5t22.5 9.5h192q13 0 22.5 -9.5t9.5 -22.5t-9.5 -22.5t-22.5 -9.5zM544 288v-192q0 -13 -9.5 -22.5t-22.5 -9.5t-22.5 9.5t-9.5 22.5v192q0 13 9.5 22.5t22.5 9.5t22.5 -9.5
t9.5 -22.5z" />
    <glyph glyph-name="uniE602" unicode="&#xe602;" 
d="M232 286q-74 -59 -118 -144t-49 -182q-1 -8 5.5 -15.5t24 -7.5t25.5 7.5t9 15.5q5 84 44 157t104 123q3 3 5.5 7t3.5 13.5t-6 19.5q-6 10 -16.5 12.5t-18.5 0t-13 -6.5zM512 384v-64q100 0 186 -47.5t138.5 -130.5t58.5 -182q0 -8 8 -15.5t24 -7.5t24 8t8 15
q-6 116 -67 213.5t-162 154t-218 56.5zM320 576.5q0 79.5 56 135.5t135.5 56t136 -56t56.5 -136q0 -39 -16 -75q-5 -10 0 -22t21 -16q30 -9 41 21q18 44 18 92q0 106 -75 181t-181 75t-181 -75t-75 -181t75 -181t181 -75v64q-80 0 -136 56.5t-56 136zM512 640q2 1 6 2.5
t9.5 9.5t5.5 19.5t-5 19.5t-11 11l-5 2q-53 0 -90.5 -37.5t-37.5 -90.5v-10q1 -2 5 -6t13 -7t19 -1t17 7t8 10l2 5v2q0 27 19 45.5t45 18.5z" />
    <glyph glyph-name="uniE603" unicode="&#xe603;" 
d="M927 416h-754l360 361q9 9 9 22.5t-9 22.5t-22.5 9t-22.5 -9l-415 -415l-1 -1l-1 -1v-1h-1v-1h-1v-1l-1 -1v-1q-1 0 -1 -1v-1h-1v-2l-1 -1v-1v-1l-1 -1v0v-1v-1v-1v-1v-2v0q-1 -1 -1 -2l1 -1v-1v-1v-1v-1v-1v-1l1 -1v-1v-1q0 -1 1 -2v0v-2h1v-1h1v-1v-1h1v-1h1v-1l1 -1
v-1h1q0 -1 1 -1l415 -415q9 -10 22.5 -10t22.5 10q9 9 9 22.5t-9 22.5l-360 360h754q13 0 22.5 9.5t9.5 22.5q0 14 -9.5 23t-22.5 9z" />
    <glyph glyph-name="uniE604" unicode="&#xe604;" 
d="M927 416q-12 0 -21 7l-394 334l-394 -334q-11 -8 -24 -7t-21.5 11t-7.5 23t11 22l415 352q9 7 21 7t20 -7l415 -352q11 -9 12 -22t-8 -23q-9 -11 -24 -11zM862 -63h-222q-13 0 -22.5 9t-9.5 23v224h-192v-224q0 -14 -9 -23t-23 -9h-224q-13 0 -22.5 9t-9.5 23v383
q0 14 9.5 23t23 9t22.5 -9t9 -23v-351h160v224q0 13 9.5 22.5t22.5 9.5h256q14 0 23 -9.5t9 -22.5v-224h158v351q0 14 9.5 23t23 9t22.5 -9t9 -23v-383q0 -14 -9 -23t-23 -9z" />
    <glyph glyph-name="uniE605" unicode="&#xe605;" 
d="M736 511h-448q-13 0 -22.5 9.5t-9.5 22.5t9.5 22.5t22.5 9.5h448q13 0 22.5 -9.5t9.5 -22.5t-9.5 -22.5t-22.5 -9.5zM607 418q34 -32 34 -81q0 -48 -37 -89q-22 -23 -78 -61q-60 -40 -72 -71h188v-51h-260q0 57 38 99q19 23 85 68q38 28 53 44q26 29 26 61t-17.5 48
t-50.5 16q-36 0 -54 -25q-19 -23 -20 -69h-58q2 63 37 101q36 41 97 41q55 0 89 -31zM352 640q-13 0 -22.5 9.5t-9.5 22.5v128q0 13 9.5 22.5t22.5 9.5t22.5 -9.5t9.5 -22.5v-128q0 -13 -9.5 -22.5t-22.5 -9.5zM672 640q-14 0 -23 9.5t-9 22.5v128q0 13 9 22.5t23 9.5
q13 0 22.5 -9.5t9.5 -22.5v-128q0 -13 -9.5 -22.5t-22.5 -9.5zM768 768v-64q26 0 45 -18.5t19 -45.5v-575q0 -27 -19 -45.5t-45 -18.5h-512q-27 0 -45.5 18.5t-18.5 45.5v575q0 27 18.5 45.5t45.5 18.5v64q-53 0 -90.5 -37.5t-37.5 -90.5v-575q0 -53 37.5 -90.5t90.5 -37.5
h512q53 0 90 37.5t37 90.5v575q0 53 -37 90.5t-90 37.5zM448 768h128v-64h-128v64z" />
    <glyph glyph-name="uniE606" unicode="&#xe606;" 
d="M128 704v-640q0 -35 31 -54q15 -10 33 -10q15 0 29 7l639 320q17 8 26.5 23.5t9.5 33.5t-9.5 33.5t-26.5 23.5l-639 320q-14 7 -29 7q-18 0 -33 -10q-31 -19 -31 -54zM192 704l640 -320v0l-640 -320v640z" />
    <glyph glyph-name="uniE607" unicode="&#xe607;" 
d="M865 758q-15 10 -33 10q-15 0 -29 -7l-639 -320q-17 -8 -26.5 -23.5t-9.5 -33.5t9.5 -33.5t26.5 -23.5l639 -320q14 -7 29 -7q18 0 33 10q31 19 31 54v640q0 35 -31 54zM832 64l-640 320v0l640 320v-640z" />
    <glyph glyph-name="uniE608" unicode="&#xe608;" 
d="M512 832q-87 0 -161 -43t-116.5 -116.5t-42.5 -160.5q0 -88 128 -320q0 -1 1 -3.5t5 -8t9 -8.5t13.5 -3.5t18.5 5.5q22 12 3 48q-114 209 -114 290q0 106 74.5 181t180.5 75t181 -75t75 -181q0 -37 -26 -105t-58.5 -130.5t-74.5 -134t-58.5 -98t-26.5 -41.5q-6 -9 -12 -9
q-2 0 -5 2.5t-5 4.5l-2 2q-15 24 -38 61l-2 4q-1 2 -5.5 6.5t-9.5 7.5t-13 3t-16 -5q-12 -8 -12.5 -20.5t4.5 -16.5q24 -40 41 -65q3 -5 8.5 -11.5t22 -18t33 -11.5t32.5 10t24 21l8 10q10 16 27.5 43t61.5 102.5t77.5 140.5t61.5 136.5t28 111.5q0 87 -43 160.5
t-116.5 116.5t-160.5 43zM512 640q-53 0 -90.5 -37.5t-37.5 -90.5t37.5 -90.5t90.5 -37.5t90.5 37.5t37.5 90.5t-37.5 90.5t-90.5 37.5zM597 512q0 -35 -25 -60t-60 -25q-36 0 -61 25t-25 60q0 36 25 61t61 25q35 0 60 -25t25 -61z" />
    <glyph glyph-name="uniE609" unicode="&#xe609;" 
d="M800 768q39 0 67 -28t28 -68v-576q0 -39 -28 -67t-67 -28h-576q-40 0 -68 28t-28 67v576q0 40 28 68t68 28h576zM800 800h-576q-53 0 -90.5 -37.5t-37.5 -90.5v-576q0 -52 37.5 -89.5t90.5 -37.5h576q53 0 90 37.5t37 89.5v576q0 53 -37 90.5t-90 37.5zM448 167
q-20 0 -34 14l-193 194q-14 14 -14 33.5t14 34t34 14.5t34 -15l159 -159l287 287q14 14 34 14t34 -14t14 -33.5t-14 -33.5l-321 -322q-14 -14 -34 -14z" />
    <glyph glyph-name="uniE60A" unicode="&#xe60a;" 
d="M512 832q-91 0 -174 -35.5t-143 -95.5t-95.5 -143t-35.5 -174v-9q0 -119 57.5 -220t157.5 -159.5t219 -58.5h14q91 0 174 35.5t143 95t95 142.5t35 174t-35 174t-95 143t-143 95.5t-174 35.5zM804 500l-323 -323q-14 -15 -34 -15t-34 15l-194 194q-14 14 -14 34t14 34
t34 14t34 -14l160 -161l290 290q14 14 33.5 14t33.5 -14t14 -34t-14 -34z" />
    <glyph glyph-name="uniE60B" unicode="&#xe60b;" 
d="M511.5 736q71.5 0 137.5 -28q63 -26 111.5 -75t75.5 -112q27 -65 27 -136.5t-27 -137.5q-27 -63 -75.5 -111.5t-111.5 -75.5q-66 -27 -137.5 -27t-136.5 27q-63 27 -112 75.5t-75 111.5q-28 66 -28 137.5t28 136.5q26 63 75 112t112 75q65 28 136.5 28zM512 832
q-91 0 -174 -35.5t-143 -95.5t-95.5 -143t-35.5 -174t35.5 -174t95.5 -142.5t143 -95t174 -35.5t174 35.5t143 95t95 142.5t35 174t-35 174t-95 143t-143 95.5t-174 35.5z" />
    <glyph glyph-name="uniE60C" unicode="&#xe60c;" 
d="M207 721v-448q0 -79 56.5 -135.5t135.5 -56.5h448v640h-640zM380 151h-40v314q-25 -33 -61 -70l-13 43q92 100 133 230l38 -18q-23 -67 -57 -125v-374zM761 242q-91 101 -150 272h-2v-363h-40v363h-3q-55 -175 -144 -276l-23 38q89 88 139 238h-102v39h133v110h40v-110
h145v-39h-116q53 -142 149 -236z" />
    <glyph glyph-name="uniE60D" unicode="&#xe60d;" 
d="M512 704q104 0 192.5 -43t140 -116.5t51.5 -160.5q0 -67 -32 -127v-227q-98 43 -160 77q-89 -43 -192 -43q-104 0 -192.5 43t-140 116.5t-51.5 160.5t51.5 160.5t140 116.5t192.5 43zM512 768q-89 0 -171 -29q-79 -28 -141 -80q-64 -52 -99 -122q-37 -73 -37 -153
t37 -153q35 -70 99 -122q62 -52 141 -80q82 -29 171 -29q59 0 115 13q39 9 75 23q61 -31 136 -64q13 -6 26 -6q19 0 35 11q29 19 29 53v212q32 68 32 142q0 80 -37 153q-35 70 -99 122q-62 52 -141 80q-82 29 -171 29zM436 431v17q58 6 98 25l6 -5q-2 -64 -2 -98v-54
q2 -78 2 -85q0 -15 3 -21q2 -3 4 -5t7 -3q2 -1 34 -1v-17h-152v17h29q6 0 9.5 2t5.5 5q3 6 4 22q0 4 2 86v52q0 45 -3 54q-2 4 -6.5 6.5t-40.5 2.5zM509 606q14 0 24 -10t10 -24t-10 -24t-24 -10t-24 10t-10 24t10 24t24 10zM509 606q14 0 24 -10t10 -24t-10 -24t-24 -10
t-24 10t-10 24t10 24t24 10zM534 473l6 -5q-2 -64 -2 -98v-54q2 -78 2 -85q0 -15 3 -21q2 -3 4 -5t7 -3q2 -1 34 -1v-17h-152v17h29q6 0 9.5 2t5.5 5q3 6 4 22q0 4 2 86v52q0 45 -3 54q-2 4 -6.5 6.5t-40.5 2.5v17q58 6 98 25zM509 615q-17 0 -29.5 -12.5t-12.5 -30.5
q0 -17 12.5 -29.5t29.5 -12.5q18 0 30.5 12.5t12.5 29.5q0 18 -12.5 30.5t-30.5 12.5zM534 482q-2 0 -4 -1q-38 -18 -95 -25q-8 -1 -8 -8v-17q0 -9 9 -9q31 0 37 -2q1 0 1 -2q3 -7 3 -50v-52q-2 -80 -2 -86q0 -13 -3 -17q0 -1 -2 -2q-1 -1 -5 -1h-29q-9 -1 -9 -9v-17
q0 -9 9 -9h152q8 0 8 9v17q0 8 -8 9h-32q-3 1 -4 2l-1 1q-2 6 -2 19q-1 6 -2 84v54q0 34 2 98q0 4 -3 7l-7 5q-2 2 -5 2z" />
    <glyph glyph-name="uniE60E" unicode="&#xe60e;" 
d="M512 704q-87 0 -161 -42.5t-116.5 -116.5t-42.5 -161t42.5 -160.5t116.5 -116t161 -42.5t160.5 42.5t116.5 116t43 160.5t-43 161t-116.5 116.5t-160.5 42.5zM670 398l-135 -136q-10 -10 -23.5 -10t-22.5 10l-136 136q-9 9 -9 22t9 23q10 9 23 9t22 -9l114 -113l113 113
q9 9 22.5 9t22.5 -9q10 -10 10 -23t-10 -22z" />
    <glyph glyph-name="uniE60F" unicode="&#xe60f;" 
d="M736 511h-448q-13 0 -22.5 9.5t-9.5 22.5t9.5 22.5t22.5 9.5h448q13 0 22.5 -9.5t9.5 -22.5t-9.5 -22.5t-22.5 -9.5zM607 418q34 -32 34 -81q0 -48 -37 -89q-22 -23 -78 -61q-60 -40 -72 -71h188v-51h-260q0 57 38 99q19 23 85 68q38 28 53 44q26 29 26 61t-17.5 48
t-50.5 16q-36 0 -54 -25q-19 -23 -20 -69h-58q2 63 37 101q36 41 97 41q55 0 89 -31zM352 640q-13 0 -22.5 9.5t-9.5 22.5v128q0 13 9.5 22.5t22.5 9.5t22.5 -9.5t9.5 -22.5v-128q0 -13 -9.5 -22.5t-22.5 -9.5zM672 640q-14 0 -23 9.5t-9 22.5v128q0 13 9 22.5t23 9.5
q13 0 22.5 -9.5t9.5 -22.5v-128q0 -13 -9.5 -22.5t-22.5 -9.5zM768 768v-64q26 0 45 -18.5t19 -45.5v-575q0 -27 -19 -45.5t-45 -18.5h-512q-27 0 -45.5 18.5t-18.5 45.5v575q0 27 18.5 45.5t45.5 18.5v64q-53 0 -90.5 -37.5t-37.5 -90.5v-575q0 -53 37.5 -90.5t90.5 -37.5
h512q53 0 90 37.5t37 90.5v575q0 53 -37 90.5t-90 37.5zM448 768h128v-64h-128v64z" />
    <glyph glyph-name="uniE610" unicode="&#xe610;" 
d="M550 323l-15 6v-182q39 5 66 22q35 26 35 67q0 58 -86 87zM395 517q0 -50 86 -82h4v169q-34 -2 -56 -18q-34 -21 -34 -69zM858 880h-692q-40 0 -67.5 -28t-27.5 -67v-818q0 -39 27.5 -66.5t67.5 -27.5h692q39 0 66.5 27.5t27.5 66.5v818q0 39 -27.5 67t-66.5 28zM660 109
q-49 -32 -125 -37v-72h-50v72q-83 5 -128 48q-51 48 -58 149h88q5 -68 34 -95q22 -22 64 -27v200l-93 34q-86 46 -86 136q0 81 62 123q45 35 117 38v67h50v-67q73 -5 118 -41q50 -39 62 -129h-87q-7 54 -38 76q-21 16 -55 19v-187q69 -26 104 -40q86 -49 86 -136
q0 -86 -65 -131z" />
    <glyph glyph-name="uniE611" unicode="&#xe611;" 
d="M985 6l-182 182q79 113 79 251q0 90 -35 171.5t-94 140.5t-140.5 94t-171.5 35t-171.5 -35t-140.5 -94t-93.5 -140.5t-34.5 -171.5t34.5 -171.5t93.5 -140.5t140.5 -94t171.5 -35q138 0 251 79l182 -183q23 -23 55.5 -23t55.5 23t23 56t-23 56zM288 262q13 -15 12 -34.5
t-16 -32.5q-13 -11 -31 -11q-21 0 -36 16q-90 102 -90 239t91 239q12 15 31.5 16t34.5 -12t16 -32.5t-12 -33.5q-66 -76 -66 -177t66 -177z" />
    <glyph glyph-name="uniE612" unicode="&#xe612;" 
d="M420 326l185 -185q14 -14 14 -33.5t-14 -33t-33.5 -13.5t-33.5 13l-262 262q-11 11 -13 26l-1 7q-1 7 0 14l1 7q2 15 13 26l262 262q14 14 33.5 14t33.5 -14t14 -33.5t-14 -33.5l-190 -190h538v364q0 39 -28 67t-67 28h-692q-39 0 -67 -28t-28 -67v-819q0 -39 28 -66.5
t67 -27.5h692q39 0 67 27.5t28 66.5v360h-533z" />
    <glyph glyph-name="uniE613" unicode="&#xe613;" 
d="M927 702h-830q-14 0 -23 9t-9 23q0 13 9 22.5t23 9.5h830q14 0 23 -9.5t9 -22.5q0 -14 -9 -23t-23 -9zM927 1h-830q-14 0 -23 9.5t-9 22.5t9 22.5t23 9.5h830q14 0 23 -9.5t9 -22.5t-9 -22.5t-23 -9.5zM673 351h-576q-14 0 -23 9.5t-9 22.5q0 14 9 23t23 9h576
q13 0 22.5 -9t9.5 -23q0 -13 -9.5 -22.5t-22.5 -9.5z" />
    <glyph glyph-name="uniE614" unicode="&#xe614;" horiz-adv-x="1025" 
d="M504 817l442 -440h-881zM504 880q-26 0 -44 -19l-440 -440q-14 -13 -17.5 -32t4 -36.5t23 -28.5t35.5 -11h881q20 0 35.5 11t23 28.5t4 36.5t-17.5 32l-442 440q-18 19 -45 19zM631 316v-2h-253v2h-316v-381q0 -26 18.5 -44.5t44.5 -18.5h189q27 0 45.5 18.5t18.5 44.5
v190q0 26 18 44.5t44 18.5h129q26 0 44 -18.5t18 -44.5v-190q0 -26 18.5 -44.5t44.5 -18.5h189q27 0 45 18.5t18 44.5v381h-315zM378 188h41h-41zM631 188h-41h41zM504 817l-439 -440h881zM471 611l-159 -159q-14 -13 -33.5 -13t-33.5 13.5t-14 33t14 33.5l159 159
q14 14 33.5 14t33.5 -14t14 -33.5t-14 -33.5z" />
    <glyph glyph-name="uniE615" unicode="&#xe615;" 
d="M952 628v-63h-208q-50 0 -80 32q-27 29 -27 72v210v0h63v-1v-209q0 -8 2 -16t13 -16.5t29 -8.5h208l-251 252h-535q-39 0 -67 -28t-28 -67v-818q0 -39 28 -66.5t67 -27.5h692q39 0 67 27.5t28 66.5v660zM196 613q0 20 14 34t33 14h221q19 0 33 -14t14 -34q0 -19 -14 -33
t-33 -14h-221q-19 0 -33 14t-14 33zM637 46q0 -20 -14 -33.5t-33 -13.5h-347q-19 0 -33 13.5t-14 33.5q0 19 14 33t33 14h347q19 0 33 -14t14 -33zM827 330q0 -20 -14 -34t-34 -14h-534q-20 0 -34 14t-14 34q0 19 14 33t34 14h534q20 0 34 -14t14 -33z" />
    <glyph glyph-name="uniE616" unicode="&#xe616;" 
d="M239 368q23 -80 89.5 -130.5t151.5 -50.5h63q85 0 152 50.5t90 130.5q36 5 62.5 31.5t26.5 61.5q0 83 -74 83h-5v21h31q0 130 -92 222.5t-222.5 92.5t-222.5 -92.5t-92 -222.5h32v-21h-4q-74 0 -74 -83q0 -34 26 -60.5t62 -32.5zM638 187l-126 -128l-126 128
q-130 0 -222.5 -92.5t-92.5 -222.5h881q0 130 -92 222.5t-222 92.5zM826 -35q0 -13 -9 -22.5t-22 -9.5h-126q-13 0 -22 9.5t-9 22.5v63q0 13 9 22t22 9h126q13 0 22 -9t9 -22v-63z" />
    <glyph glyph-name="uniE617" unicode="&#xe617;" 
d="M928 896h-832q-40 0 -68 -28t-28 -68v-608q0 -40 28 -68t68 -28h160v64h-160q-13 0 -22.5 9.5t-9.5 22.5v608q0 13 9.5 22.5t22.5 9.5h832q13 0 22.5 -9.5t9.5 -22.5v-608q0 -13 -9.5 -22.5t-22.5 -9.5h-464l-160 -224h-16v-64h48l160 224h432q40 0 68 28t28 68v608
q0 40 -28 68t-68 28zM831 319q2 53 -7 116q-19 131 -77 191q-45 46 -108 46t-108 -46q-47 -49 -68 -145q-9 13 -19 23q-38 40 -92 40t-92 -40q-29 -29 -46 -77q-19 -52 -22 -105l64 -4q3 45 19 88q27 74 77 74t77 -74q16 -43 18 -88l31 2l33 1q-1 48 7 106q16 110 59 154
q26 27 62 27t62 -27q43 -44 59 -154q8 -58 7 -106z" />
    <glyph glyph-name="uniE618" unicode="&#xe618;" 
d="M896 512q0 159 -112.5 271.5t-271.5 112.5t-271.5 -112.5t-112.5 -271.5q0 -60 16 -111t45.5 -92t59.5 -73.5t70 -74.5t65 -75.5t43 -64t26 -48t12 -33.5t4 -19v-6q0 -2 0.5 -5t2.5 -10.5t6 -13t13 -10t21 -4.5t21 4.5t13 10.5t6 12.5t3 10.5v5q32 98 84 168q25 34 65 76
t70.5 74.5t60 73.5t45.5 92.5t16 112.5zM512 341q-71 0 -121 50t-50 121t50 121t121 50t121 -50t50 -121t-50 -121t-121 -50z" />
    <glyph glyph-name="uniE619" unicode="&#xe619;" 
d="M896 576v-608q0 -13 -9.5 -22.5t-22.5 -9.5h-704q-13 0 -22.5 9.5t-9.5 22.5v832q0 13 9.5 22.5t22.5 9.5h467l150 -151l46 46l-170 169h-493q-40 0 -68 -28t-28 -68v-832q0 -40 28 -68t68 -28h704q40 0 68 28t28 68v608h-64zM352 160q13 0 23 9l265 266l137 -138
q10 -9 23 -9t22.5 9.5t9.5 22.5t-9 23l-160 160q-10 9 -23 9t-23 -9l-288 -288q-9 -10 -9 -23t9.5 -22.5t22.5 -9.5zM425 457q10 -9 23 -9t22.5 9.5t9.5 22.5t-9 23l-32 32q-10 9 -23 9t-23 -9l-192 -192q-9 -10 -9 -23t9.5 -22.5t22.5 -9.5t23 9l169 170z" />
    <glyph glyph-name="uniE61A" unicode="&#xe61a;" 
d="M928 896h-832q-40 0 -68 -28t-28 -68v-608q0 -40 28 -68t68 -28h160v64h-160q-13 0 -22.5 9.5t-9.5 22.5v608q0 13 9.5 22.5t22.5 9.5h832q13 0 22.5 -9.5t9.5 -22.5v-608q0 -13 -9.5 -22.5t-22.5 -9.5h-464l-160 -224h-16v-64h48l160 224h432q40 0 68 28t28 68v608
q0 40 -28 68t-68 28zM512 704h-192q-40 0 -68 -28t-28 -68v-320h64v320q0 13 9.5 22.5t22.5 9.5h192q13 0 22.5 -9.5t9.5 -22.5v-96h160q13 0 22.5 -9.5t9.5 -22.5v-192h64v192q0 40 -28 68t-68 28h-96v32q0 40 -28 68t-68 28z" />
    <glyph glyph-name="uniE61B" unicode="&#xe61b;" 
d="M505 241q-82 -57 -106 -86q-47 -53 -47 -123h324v63h-235q15 39 91 89q69 47 97 76q46 51 46 111q0 62 -42 102q-43 38 -112 38q-76 0 -121 -50q-44 -48 -45 -127h71q2 58 25 87q23 30 68 30q42 0 63.5 -20t21.5 -59q0 -41 -32 -77q-19 -20 -67 -54zM964 804
q-28 28 -68 28h-64v-64h64q13 0 22.5 -9.5t9.5 -22.5v-743q0 -15 -5 -20q-4 -5 -17 -5h-777q-14 0 -23.5 9.5t-9.5 22.5v736q0 13 9.5 22.5t23.5 9.5h64v64h-64q-41 0 -69 -28t-28 -68v-736q0 -40 28 -68t69 -28h777q41 0 64 25q22 24 22 64v743q0 40 -28 68zM416 832h194
v-64h-194v64zM672 896h96v-192h-96v192zM256 896h96v-192h-96v192zM160 641h704v-65h-704v65z" />
    <glyph glyph-name="uniE61C" unicode="&#xe61c;" 
d="M687 91.5q-10 8.5 -23.5 7.5t-21.5 -11q-62 -72 -130 -139q-91 91 -168 184q-184 226 -184 347q0 95 47 176.5t128.5 128.5t176.5 47t176.5 -47t128.5 -128.5t47 -176.5q0 -91 -108 -247l-38 20q-12 6 -24.5 2t-18.5 -15.5t-2 -24t15 -19.5l63 -32q10 -6 21.5 -3t18.5 12
q62 84 95 155q42 87 42 152q0 85 -33 162q-31 75 -88.5 132.5t-132.5 88.5q-77 33 -162 33t-162 -33q-75 -31 -132.5 -88.5t-88.5 -132.5q-33 -77 -33 -162q0 -144 199 -388q97 -119 195 -211q9 -9 22 -9t22 9q73 69 156 165q9 10 8 23.5t-11 22zM672 -64h352v-64h-352v64z
M0 -64h352v-64h-352v64zM512 704q-79 0 -135.5 -56.5t-56.5 -135.5t56.5 -135.5t135.5 -56.5t135.5 56.5t56.5 135.5t-56.5 135.5t-135.5 56.5zM512 384q-53 0 -90.5 37.5t-37.5 90.5t37.5 90.5t90.5 37.5t90.5 -37.5t37.5 -90.5t-37.5 -90.5t-90.5 -37.5z" />
    <glyph glyph-name="uniE61D" unicode="&#xe61d;" 
d="M984 583q-39 92 -110 163t-163 110q-95 40 -199 40t-199 -40q-92 -39 -163 -110t-110 -163q-40 -95 -40 -199t40 -199q39 -92 110 -163t163 -110q95 -40 199 -40t199 40q92 39 163 110t110 163q40 95 40 199t-40 199zM512 -64q-91 0 -174 35.5t-143 95.5t-95.5 143
t-35.5 174t35.5 174t95.5 143t143 95.5t174 35.5t174 -35.5t143 -95.5t95.5 -143t35.5 -174t-35.5 -174t-95.5 -143t-143 -95.5t-174 -35.5zM695 631q-3 3 -7 5q-8 4 -17 4q-17 0 -27 -14l-123 -123q-9 -10 -9 -23t9.5 -22.5t22.5 -9.5t23 9l72 72v-273q0 -13 9.5 -22.5
t23 -9.5t23 9.5t9.5 22.5v274l74 -73q9 -10 22.5 -10t23 9.5t9.5 23t-10 22.5zM458 312l-74 -74v274q0 13 -9.5 22.5t-23 9.5t-23 -9.5t-9.5 -22.5v-273l-72 72q-9 10 -22.5 10t-23 -9.5t-9.5 -23t9 -22.5l123 -123q9 -15 28 -15q15 0 25 12l126 126q10 10 10 23t-9.5 22.5
t-23 9.5t-22.5 -9z" />
    <glyph glyph-name="uniE61E" unicode="&#xe61e;" 
d="M298.5 -127q-17.5 0 -29.5 12t-12 29.5t12 29.5l440 440l-440 440q-12 12 -12 29.5t12 29.5t29.5 12t29.5 -12l469 -470q13 -12 13 -29t-13 -29l-469 -470q-12 -12 -29.5 -12z" />
    <glyph glyph-name="uniE61F" unicode="&#xe61f;" 
d="M1021.5 524q-6.5 18 -25.5 20l-304 43l-154 261q-9 15 -28 15q-18 0 -28 -16l-150 -259l-304 -44q-19 -2 -25.5 -20t6.5 -32l212 -244l-62 -306q-4 -18 11 -31q9 -7 20 -7q7 0 13 3l309 129l307 -129q17 -8 32 4t11 31l-59 306l213 244q12 14 5.5 32z" />
    <glyph glyph-name="uniE620" unicode="&#xe620;" 
d="M512 683l-512 -555h1024z" />
    <glyph glyph-name="uniE621" unicode="&#xe621;" 
d="M512 85l-512 555h1024z" />
    <glyph glyph-name="uniE622" unicode="&#xe622;" 
d="M799 65q-13 0 -23 9l-574 574q-9 9 -9 22.5t9.5 23t22.5 9.5t22 -10l574 -574q10 -9 10 -22.5t-9.5 -22.5t-22.5 -9zM225 65q-13 0 -22.5 9t-9.5 22.5t9 22.5l574 574q10 10 23 10t22.5 -9.5t9.5 -23t-10 -22.5l-574 -574q-9 -9 -22 -9z" />
    <glyph glyph-name="uniE623" unicode="&#xe623;" horiz-adv-x="1025" 
d="M383 31q-26 0 -45 19l-319 320q-19 19 -19 45.5t19 45t45.5 18.5t44.5 -18l274 -275l532 531q18 19 45 19t45.5 -18.5t18.5 -45.5t-19 -45l-577 -577q-18 -19 -45 -19z" />
    <glyph glyph-name="uniE624" unicode="&#xe624;" horiz-adv-x="1027" 
d="M939 780q-78 73 -192 73q-51 0 -106 -27q-41 -20 -84 -55q-23 -19 -45 -42q-22 23 -45 42q-43 35 -84 55q-55 27 -106 27q-114 0 -191 -74q-86 -82 -86 -224q0 -114 80 -241q61 -97 168 -199q53 -51 115 -100.5t86.5 -66.5t39.5 -27q10 -6 23 -6q14 0 25 8
q121 89 241 209q106 107 168 201q37 57 57 109q23 60 23 113q0 142 -87 225zM512 -43q-10 7 -27 18.5t-65.5 48.5t-93 75.5t-98.5 96t-93 112t-65.5 120.5t-26.5 127q0 63 19.5 113.5t53 80.5t74.5 46t87 16q25 0 51 -8t48 -21t43.5 -28.5t38 -31t29 -28t18.5 -20.5l7 -8
q5 6 13.5 15.5t34.5 34.5t52.5 44t63.5 35t71 16q46 0 87.5 -16t75 -46t53.5 -80.5t20 -113.5q0 -174 -285 -441q-99 -93 -186 -157zM277 747q-56 0 -96 -29t-57 -71t-17 -92q0 -9 6 -15.5t15 -6.5t15 6.5t6 15.5q0 27 7 52.5t21.5 47.5t40 35.5t59.5 13.5q9 0 15.5 6
t6.5 15t-6.5 15.5t-15.5 6.5z" />
    <glyph glyph-name="uniE625" unicode="&#xe625;" horiz-adv-x="1027" 
d="M939 780q-78 73 -192 73q-51 0 -106 -27q-41 -20 -84 -55q-23 -19 -45 -42q-22 23 -45 42q-43 35 -84 55q-55 27 -106 27q-114 0 -191 -74q-86 -82 -86 -224q0 -114 80 -241q61 -97 168 -199q53 -51 115 -100.5t86.5 -66.5t39.5 -27q10 -6 23 -6q14 0 25 8
q121 89 241 209q106 107 168 201q37 57 57 109q23 60 23 113q0 142 -87 225zM46 602l2 14zM277 704q-34 0 -59.5 -13.5t-40 -35.5t-21.5 -47.5t-7 -52.5q0 -9 -6 -15.5t-15 -6.5t-15 6.5t-6 15.5q0 50 17 92t57 71t96 29q9 0 15.5 -6.5t6.5 -15.5t-6.5 -15t-15.5 -6z
M367 787q5 -3 10 -5q-5 2 -10 5zM503 676q2 -1 3 -3q-1 2 -3 3zM512 666l-1 2l1 -2l2 2zM943 413q3 5 5 10q-2 -5 -5 -10z" />
    <glyph glyph-name="uniE626" unicode="&#xe626;" 
d="M743 278q57 50 89 119t32 147q0 146 -103 249t-249 103t-249 -103t-103 -249q0 -78 32 -147t89 -118q-117 -47 -183 -137t-66 -206q0 -24 18.5 -44t45.5 -20h418h415q25 0 44 19.5t19 44.5q0 115 -66 205.5t-183 136.5zM288 611q6 65 62 123q58 58 127 66q13 1 23 -7
t11.5 -21.5t-6.5 -23.5t-22 -12q-45 -5 -86 -46t-45 -85q-1 -12 -10.5 -20.5t-21.5 -8.5h-3q-13 1 -21.5 11.5t-7.5 23.5z" />
    <glyph glyph-name="uniE627" unicode="&#xe627;" 
d="M1000 682q-24 55 -69 92q-76 62 -195 62q-53 0 -109 -26q-42 -19 -84 -51q-16 -12 -31 -25q-15 13 -31 25q-42 32 -84 51q-56 26 -109 26q-119 0 -195 -62q-45 -37 -69 -92q-24 -57 -24 -130q0 -114 80 -238q61 -94 165 -189q116 -108 234 -180q15 -9 33 -9t33 9
q11 7 29 19q148 98 258 212q192 198 192 376q0 73 -24 130zM539 17q-8 -5 -14.5 -9t-9.5 -6l-3 -2q-9 6 -25.5 16.5t-63 44t-88.5 69t-94 88t-89 103.5t-62.5 113t-25.5 118q0 60 18.5 104.5t51.5 68.5t71 35.5t83 11.5q32 0 66.5 -13t61.5 -32t49.5 -38t34.5 -32l12 -13
q5 5 13 13.5t33 31t50.5 39t60.5 30.5t67 14q45 0 83 -11.5t71 -35.5t51.5 -68.5t18.5 -104.5q0 -48 -18.5 -100t-47.5 -97.5t-69.5 -92t-78.5 -82t-81.5 -70.5t-71.5 -55t-54 -38zM288 703q-78 0 -119 -41t-41 -118q0 -13 9.5 -22.5t22.5 -9.5t22.5 9.5t9.5 22.5
q0 51 22.5 73t73.5 22q13 0 22.5 9.5t9.5 22.5t-9.5 22.5t-22.5 9.5z" />
    <glyph glyph-name="uniE628" unicode="&#xe628;" 
d="M224 512h576v-64h-576v64zM224 320h320v-64h-320v64zM224 128h448v-64h-448v64zM832 800h-32v-64h32q26 0 45 -19t19 -45v-672q0 -26 -19 -45t-45 -19h-640q-26 0 -45 19t-19 45v672q0 26 19 45t45 19h32v64h-32q-53 0 -90.5 -37.5t-37.5 -90.5v-672q0 -53 37.5 -90.5
t90.5 -37.5h640q53 0 90.5 37.5t37.5 90.5v672q0 53 -37.5 90.5t-90.5 37.5zM416 640h192q53 0 90.5 37.5t37.5 90.5t-37.5 90.5t-90.5 37.5h-192q-53 0 -90.5 -37.5t-37.5 -90.5t37.5 -90.5t90.5 -37.5zM416 832h192q26 0 45 -19t19 -45t-19 -45t-45 -19h-192q-26 0 -45 19
t-19 45t19 45t45 19z" />
    <glyph glyph-name="uniE629" unicode="&#xe629;" 
d="M1024 703q0 53 -37.5 90.5t-90.5 37.5h-768q-53 0 -90.5 -37.5t-37.5 -90.5v-639q0 -53 37.5 -90.5t90.5 -37.5h768q53 0 90.5 37.5t37.5 90.5v639zM960 64q0 -27 -18.5 -45.5t-45.5 -18.5h-768q-27 0 -45.5 18.5t-18.5 45.5v639q0 26 18.5 45t45.5 19h768q27 0 45.5 -19
t18.5 -45v-639zM448 384q0 -80 56 -136t136 -56h256v64h-256q-53 0 -90.5 37.5t-37.5 90.5t37.5 90.5t90.5 37.5h256v64h-256q-80 0 -136 -56t-56 -136zM576 384q0 -27 18.5 -45.5t45.5 -18.5t45.5 18.5t18.5 45.5t-18.5 45.5t-45.5 18.5t-45.5 -18.5t-18.5 -45.5z" />
    <glyph glyph-name="uniE62A" unicode="&#xe62a;" 
d="M752 725l-75 148q-12 23 -38 23h-256q-27 0 -38 -24l-73 -147h-272v-85h299q26 0 38 24l72 147h204l74 -148q12 -23 38 -23h299v85h-272zM896 -43h-768v598h-85v-640q0 -18 12.5 -30.5t29.5 -12.5h854q17 0 29.5 12.5t12.5 30.5v640h-85v-598zM256 469h85v-426h-85v426z
M469 384h86v-256h-86v256zM683 469h85v-426h-85v426z" />
    <glyph glyph-name="uniE62B" unicode="&#xe62b;" 
d="M736 736q27 0 45.5 18.5t18.5 45.5v96h-128v-96q0 -27 18.5 -45.5t45.5 -18.5zM288 736q27 0 45.5 18.5t18.5 45.5v96h-128v-96q0 -27 18.5 -45.5t45.5 -18.5zM896 832h-64v-32q0 -40 -28 -68t-68 -28t-68 28t-28 68v32h-256v-32q0 -40 -28 -68t-68 -28t-68 28t-28 68v32
h-64q-53 0 -90.5 -37.5t-37.5 -90.5v-704q0 -53 37.5 -90.5t90.5 -37.5h768q53 0 90.5 37.5t37.5 90.5v704q0 53 -37.5 90.5t-90.5 37.5zM960 0q0 -27 -18.5 -45.5t-45.5 -18.5h-768q-27 0 -45.5 18.5t-18.5 45.5v512q0 27 18.5 45.5t45.5 18.5h768q27 0 45.5 -18.5
t18.5 -45.5v-512zM224 448h576v-64h-576v64zM224 288h256v-64h-256v64zM224 128h448v-64h-448v64z" />
  </font>
</defs>
</svg>
